<svg xmlns="http://www.w3.org/2000/svg" width="1999.98" height="691.496" viewBox="0 0 1927.692 666.502">
  <defs>
    <style>
      .cls-1 {
        fill: #5c6eff;
        fill-rule: evenodd;
      }
    </style>
  </defs>
  <path id="Computantis" class="cls-1" d="M630.077,1014.76q61.367-27.77,103.67-78.342L678.18,882.535q-76.314,87.042-179.971,87.042-98.708,0-165.043-66.318-65.526-65.477-65.52-170.769,0-105.267,65.52-170.769,66.342-66.312,165.043-66.319,99.523,0,163.384,77.095l54.738-53.054q-83.78-96.99-218.122-96.99-132.705,0-220.61,89.529Q189.68,599.86,189.686,732.49T277.6,953.827q88.734,88.715,220.61,88.7Q568.691,1042.53,630.077,1014.76Zm160.887-1.52q19.9,20.445,50.038,20.45t49.762-20.45q19.9-20.172,19.9-51.676,0-31.222-19.9-51.673Q871.131,889.445,841,889.443t-50.038,20.448q-19.634,20.452-19.628,51.673t19.628,51.676h0Zm18.522-86.769Q822.478,912.656,841,912.654t31.516,13.817q12.713,13.542,12.717,35.093,0,21.833-12.717,35.37a43.458,43.458,0,0,1-63.032,0q-12.719-13.536-12.717-35.37,0-21.553,12.717-35.093h0ZM956.56,954.38q0-16.853,9.953-29.291t24.6-12.435q16.31,0,23.223,8.428t6.91,27.5v80.683h25.43V954.38q0-16.853,9.96-29.291,9.945-12.435,24.6-12.435,16.3,0,23.22,8.428t6.91,27.5v80.683h25.44V944.708q0-26.527-12.72-40.9t-36.21-14.369q-29.865,0-46.72,25.975a40.851,40.851,0,0,0-16.59-19.067q-11.34-6.9-26.265-6.908-11.889,0-23.913,6.632T956.56,912.654h-1.1v-18.79H931.127v135.4H956.56V954.38Zm245.49,42.554q-12.165-13.815-12.17-35.37,0-21.274,12.17-35.093a39.954,39.954,0,0,1,30.96-13.817q18.255,0,30.69,13.817t12.44,35.093q0,21.554-12.44,35.093-12.45,13.819-30.69,13.813a40.311,40.311,0,0,1-30.96-13.536h0Zm80.45,15.746q19.065-20.989,19.07-51.116,0-29.842-19.07-51.12-18.525-21-45.34-21a58.461,58.461,0,0,0-27.23,6.355,47.607,47.607,0,0,0-18.94,16.856h-1.11v-18.79h-24.32V1088.95h25.43v-59.69l-1.11-18.79h1.11a47.527,47.527,0,0,0,18.94,16.86,58.4,58.4,0,0,0,27.23,6.36q26.8,0,45.34-21.01h0Zm159.79-118.816h-25.44v74.884q0,17.137-10.23,29.429t-25.43,12.293q-32.625,0-33.45-33.155V893.864h-25.43v85.109q0,26.255,13.4,40.477t38.29,14.24a51.142,51.142,0,0,0,25.02-6.64q12.03-6.63,17.83-16.58h1.11v18.79h24.33v-135.4Zm109.19,134.016-8.02-22.66a30.163,30.163,0,0,1-5.39,1.8,25.532,25.532,0,0,1-5.94.69,17.073,17.073,0,0,1-11.89-4.84q-5.25-4.824-5.25-18.371V917.076h33.17V893.864h-33.17V852.415h-25.43v41.449h-23.78v23.212h23.78v75.713q0.27,18.242,11.19,28.461t27.51,10.22a68.4,68.4,0,0,0,23.22-3.59h0Zm47.14-58.579q10.365-7.461,25.84-7.461,21.285,0,33.18,9.395,0,16.029-12.58,27.909t-28.61,11.886a30.993,30.993,0,0,1-19.77-6.64q-8.43-6.625-8.43-16.575Q1588.25,976.766,1598.62,969.3Zm-32.21-53.331,22.39,14.093q12.435-17.959,33.73-17.961a36.028,36.028,0,0,1,24.6,9.257q10.5,9.261,10.51,22.52v5.8q-14.655-8.291-37.32-8.29-26.55,0-42.44,12.435t-15.89,33.435q0,19.9,15.06,33.158t37.46,13.27q26.265,0,42.02-23.22h1.11v18.79h24.33V945.813q0-26.249-16.31-41.31t-44.51-15.06q-36.225,0-54.74,26.527h0Zm144.31,113.29h25.43V954.38q0-17.13,10.23-29.429,10.215-12.293,25.43-12.3,32.625,0,33.45,33.159v83.447h25.44V944.155q0-26.249-13.41-40.481T1779,889.443a51.122,51.122,0,0,0-25.02,6.632q-12.03,6.631-17.83,16.579h-1.11v-18.79h-24.32v135.4Zm219.78-1.38-8.02-22.66a30.708,30.708,0,0,1-5.39,1.8,25.68,25.68,0,0,1-5.95.69,17.05,17.05,0,0,1-11.88-4.84Q1894,998.046,1894,984.5V917.076h33.18V893.864H1894V852.415h-25.43v41.449H1844.8v23.212h23.77v75.713q0.27,18.242,11.2,28.461t27.5,10.22a68.505,68.505,0,0,0,23.23-3.59h0Zm50.03-193.426a18.013,18.013,0,1,0,5.25,12.711A17.351,17.351,0,0,0,1980.53,834.454Zm-25.44,59.41v135.4h25.44v-135.4h-25.44Zm121.92,57.2-20.46-5.251q-21.84-4.972-21.84-16.579,0-7.182,7.88-12.158a32.674,32.674,0,0,1,17.83-4.974,39.5,39.5,0,0,1,19.49,4.835,28.634,28.634,0,0,1,12.58,13.4l22.67-9.4q-5.8-14.364-20.32-22.935a62.762,62.762,0,0,0-32.49-8.566q-23.49,0-38.56,11.191t-15.07,29.705q0,28.185,39.54,38.133l23.22,5.8q19.905,6.081,19.9,19.066,0,7.19-8.15,12.439t-20.32,5.25a35.282,35.282,0,0,1-20.87-6.77,42.089,42.089,0,0,1-14.52-18.932L2004.85,995a58.628,58.628,0,0,0,22.12,28.051q15.48,10.635,35.94,10.64,23.49,0,38.98-12.16t15.48-29.846q0-30.673-40.36-40.62h0Z" transform="translate(-189.688 -422.438)"/>
</svg>
